# xmcd
#
# Track frame offsets: 
#        150
#        15929
#        29161
#        45971
#        58072
#
# Disc length: 1014 seconds
#
# Revision: 0
# Processed by: cddbd v1.5.2PL0 Copyright (c) Steve Scherf et al.
# Submitted via: ExactAudioCopyFreeDBPlugin 1.0
#
DISCID=3503f405
DTITLE=Jamey Johnson - The Christmas Song
DYEAR=2014
DGENRE=Country
TTITLE0=Baby It's Cold Outside
TTITLE1=Mele Kalikimaka
TTITLE2=South Alabam Christmas
TTITLE3=Pretty Paper
TTITLE4=The Christmas Song
EXTD=
EXTT0=
EXTT1=
EXTT2=
EXTT3=
EXTT4=
PLAYORDER=
